<svg xmlns="http://www.w3.org/2000/svg" width="28.721" height="28.721" viewBox="0 0 28.721 28.721">
    <g>
        <path fill="#de1920" d="M36.38 52.721H25.486A1.486 1.486 0 0 1 24 51.235V25.486A1.486 1.486 0 0 1 25.486 24H36.38a1.486 1.486 0 0 1 1.486 1.486v5.942a1.486 1.486 0 1 1-2.971 0v-4.457h-7.924V49.75h7.923v-4.457a1.486 1.486 0 0 1 2.971 0v5.942a1.486 1.486 0 0 1-1.486 1.486zM47.109 38.36l-1.981-1.486h-12.71a1.486 1.486 0 1 0 0 2.971h12.71zM44.2 45.491l7.923-5.942a1.486 1.486 0 0 0 0-2.377L44.2 31.23a1.486 1.486 0 0 0-1.783 2.377l6.338 4.754-6.338 4.754a1.486 1.486 0 0 0 1.783 2.376z" transform="translate(-24 -24)"/>
    </g>
</svg>
