<svg xmlns="http://www.w3.org/2000/svg" width="21.499" height="21.5" viewBox="0 0 21.499 21.5">
    <g>
        <g>
            <g>
                <path fill="#de1920" d="M8.453 4.628V.768A.768.768 0 0 0 7.114.254L.2 7.933a.768.768 0 0 0-.024 1l6.914 8.444a.768.768 0 0 0 1.362-.485v-3.825c6.066.2 9.852 2.79 11.558 7.909a.768.768 0 0 0 .728.524.744.744 0 0 0 .124-.01.768.768 0 0 0 .644-.758c0-9.042-5.443-15.685-13.053-16.104z" transform="translate(-.007) translate(.007) translate(-.007)"/>
            </g>
        </g>
    </g>
</svg>
